<?xml version="1.0" encoding="UTF-8" standalone="no"?>
<svg width="31px" height="31px" viewBox="0 0 31 31" version="1.1" xmlns="http://www.w3.org/2000/svg" xmlns:xlink="http://www.w3.org/1999/xlink">
    <!-- Generator: Sketch 3.7.2 (28276) - http://www.bohemiancoding.com/sketch -->
    <title>fb-escuro</title>
    <desc>Created with Sketch.</desc>
    <defs></defs>
    <g id="Page-1" stroke="none" stroke-width="1" fill="none" fill-rule="evenodd">
        <path d="M19.4403871,10.3064618 L18.0285121,10.3073993 C16.9213246,10.3073993 16.7066371,10.8333368 16.7066371,11.6048993 L16.7066371,13.3073993 L19.3475746,13.3073993 L19.0035121,15.9745868 L16.7066371,15.9745868 L16.7066371,22.8164618 L13.9531996,22.8164618 L13.9531996,15.9745868 L11.6506996,15.9745868 L11.6506996,13.3073993 L13.9531996,13.3073993 L13.9531996,11.3414618 C13.9531996,9.05864925 15.3472621,7.81646175 17.3825746,7.81646175 C18.3575746,7.81646175 19.1956996,7.88864925 19.4403871,7.92146175 L19.4403871,10.3064618 Z M15.5450746,0.316461751 C7.26132462,0.316461751 0.545074618,7.03177425 0.545074618,15.3164618 C0.545074618,23.6002118 7.26132462,30.3164618 15.5450746,30.3164618 C23.8297621,30.3164618 30.5450746,23.6002118 30.5450746,15.3164618 C30.5450746,7.03177425 23.8297621,0.316461751 15.5450746,0.316461751 L15.5450746,0.316461751 Z" id="fb-escuro" fill="#9B9B9B"></path>
    </g>
</svg>