<?xml version="1.0" encoding="UTF-8" standalone="no"?>
<svg width="31px" height="31px" viewBox="0 0 31 31" version="1.1" xmlns="http://www.w3.org/2000/svg" xmlns:xlink="http://www.w3.org/1999/xlink">
    <!-- Generator: Sketch 3.7.2 (28276) - http://www.bohemiancoding.com/sketch -->
    <title>fb</title>
    <desc>Created with Sketch.</desc>
    <defs></defs>
    <g id="Page-1" stroke="none" stroke-width="1" fill="none" fill-rule="evenodd">
        <path d="M19.5209084,10.9543425 L18.1090334,10.95528 C17.0018459,10.95528 16.7871584,11.4812175 16.7871584,12.25278 L16.7871584,13.95528 L19.4280959,13.95528 L19.0840334,16.6224675 L16.7871584,16.6224675 L16.7871584,23.4643425 L14.0337209,23.4643425 L14.0337209,16.6224675 L11.7312209,16.6224675 L11.7312209,13.95528 L14.0337209,13.95528 L14.0337209,11.9893425 C14.0337209,9.70653001 15.4277834,8.46434251 17.4630959,8.46434251 C18.4380959,8.46434251 19.2762209,8.53653001 19.5209084,8.56934251 L19.5209084,10.9543425 Z M15.6255959,0.964342515 C7.34184589,0.964342515 0.625595887,7.67965501 0.625595887,15.9643425 C0.625595887,24.2480925 7.34184589,30.9643425 15.6255959,30.9643425 C23.9102834,30.9643425 30.6255959,24.2480925 30.6255959,15.9643425 C30.6255959,7.67965501 23.9102834,0.964342515 15.6255959,0.964342515 L15.6255959,0.964342515 Z" id="fb" fill="#3D5A96"></path>
    </g>
</svg>