<?xml version="1.0" encoding="UTF-8" standalone="no"?>
<svg width="31px" height="31px" viewBox="0 0 31 31" version="1.1" xmlns="http://www.w3.org/2000/svg" xmlns:xlink="http://www.w3.org/1999/xlink">
    <!-- Generator: Sketch 3.7.2 (28276) - http://www.bohemiancoding.com/sketch -->
    <title>rd-escuro</title>
    <desc>Created with Sketch.</desc>
    <defs></defs>
    <g id="Page-1" stroke="none" stroke-width="1" fill="none" fill-rule="evenodd">
        <path d="M21.7613907,16.7020868 C21.7773282,16.8323993 21.7867032,16.9645868 21.7867032,17.0967743 C21.7867032,18.3398993 21.0638907,19.4958368 19.7523282,20.3517743 C18.4951407,21.1720868 16.8310782,21.6239618 15.0676407,21.6239618 C13.3032657,21.6239618 11.6401407,21.1720868 10.3820157,20.3517743 C9.07045316,19.4958368 8.34857816,18.3398993 8.34857816,17.0967743 C8.34857816,16.9514618 8.35889066,16.8070868 8.37857816,16.6645868 C7.90701566,16.3392743 7.59764066,15.7955243 7.59764066,15.1814618 C7.59764066,14.1867743 8.40670316,13.3786493 9.40045316,13.3786493 C9.81857816,13.3786493 10.2029532,13.5220868 10.5095157,13.7611493 C11.6898282,13.0298993 13.2038907,12.6127118 14.8154532,12.5733368 L15.7829532,9.51239925 C15.8476407,9.30802425 16.0595157,9.18802425 16.2676407,9.23771175 L18.7585782,9.82364925 C19.0098282,9.33989925 19.5151407,9.00896175 20.0963907,9.00896175 C20.9279532,9.00896175 21.6048282,9.68583675 21.6048282,10.5173993 C21.6048282,11.3480243 20.9279532,12.0248993 20.0963907,12.0248993 C19.3023282,12.0248993 18.6498282,11.4070868 18.5935782,10.6261493 L16.4495157,10.1217743 L15.6695157,12.5873993 C17.1648282,12.6755243 18.5598282,13.0917743 19.6595157,13.7827118 C19.9698282,13.5305243 20.3645157,13.3786493 20.7948282,13.3786493 C21.7895157,13.3786493 22.5976407,14.1867743 22.5976407,15.1814618 C22.5976407,15.8198993 22.2638907,16.3814618 21.7613907,16.7020868 M15.0976407,0.316461751 C6.81389066,0.316461751 0.0976406645,7.03271175 0.0976406645,15.3164618 C0.0976406645,23.6011493 6.81389066,30.3164618 15.0976407,30.3164618 C23.3823282,30.3164618 30.0976407,23.6011493 30.0976407,15.3164618 C30.0976407,7.03271175 23.3823282,0.316461751 15.0976407,0.316461751" id="rd-escuro" fill="#9B9B9B"></path>
    </g>
</svg>