<?xml version="1.0" encoding="UTF-8" standalone="no"?>
<svg width="31px" height="31px" viewBox="0 0 31 31" version="1.1" xmlns="http://www.w3.org/2000/svg" xmlns:xlink="http://www.w3.org/1999/xlink">
    <!-- Generator: Sketch 3.7.2 (28276) - http://www.bohemiancoding.com/sketch -->
    <title>rd</title>
    <desc>Created with Sketch.</desc>
    <defs></defs>
    <g id="Page-1" stroke="none" stroke-width="1" fill="none" fill-rule="evenodd">
        <path d="M21.8419119,17.3499675 C21.8578494,17.48028 21.8672244,17.6124675 21.8672244,17.744655 C21.8672244,18.98778 21.1444119,20.1437175 19.8328494,20.999655 C18.5756619,21.8199675 16.9115994,22.2718425 15.1481619,22.2718425 C13.3837869,22.2718425 11.7206619,21.8199675 10.4625369,20.999655 C9.15097443,20.1437175 8.42909943,18.98778 8.42909943,17.744655 C8.42909943,17.5993425 8.43941193,17.4549675 8.45909943,17.3124675 C7.98753693,16.987155 7.67816193,16.443405 7.67816193,15.8293425 C7.67816193,14.834655 8.48722443,14.02653 9.48097443,14.02653 C9.89909943,14.02653 10.2834744,14.1699675 10.5900369,14.40903 C11.7703494,13.67778 13.2844119,13.2605925 14.8959744,13.2212175 L15.8634744,10.16028 C15.9281619,9.95590501 16.1400369,9.83590501 16.3481619,9.88559251 L18.8390994,10.47153 C19.0903494,9.98778001 19.5956619,9.65684251 20.1769119,9.65684251 C21.0084744,9.65684251 21.6853494,10.3337175 21.6853494,11.16528 C21.6853494,11.995905 21.0084744,12.67278 20.1769119,12.67278 C19.3828494,12.67278 18.7303494,12.0549675 18.6740994,11.27403 L16.5300369,10.769655 L15.7500369,13.23528 C17.2453494,13.323405 18.6403494,13.739655 19.7400369,14.4305925 C20.0503494,14.178405 20.4450369,14.02653 20.8753494,14.02653 C21.8700369,14.02653 22.6781619,14.834655 22.6781619,15.8293425 C22.6781619,16.46778 22.3444119,17.0293425 21.8419119,17.3499675 M15.1781619,0.964342515 C6.89441193,0.964342515 0.178161933,7.68059251 0.178161933,15.9643425 C0.178161933,24.24903 6.89441193,30.9643425 15.1781619,30.9643425 C23.4628494,30.9643425 30.1781619,24.24903 30.1781619,15.9643425 C30.1781619,7.68059251 23.4628494,0.964342515 15.1781619,0.964342515" id="rd" fill="#FC571F"></path>
    </g>
</svg>