<?xml version="1.0" encoding="UTF-8" standalone="no"?>
<svg width="31px" height="31px" viewBox="0 0 31 31" version="1.1" xmlns="http://www.w3.org/2000/svg" xmlns:xlink="http://www.w3.org/1999/xlink">
    <!-- Generator: Sketch 3.7.2 (28276) - http://www.bohemiancoding.com/sketch -->
    <title>tb-escuro</title>
    <desc>Created with Sketch.</desc>
    <defs></defs>
    <g id="Page-1" stroke="none" stroke-width="1" fill="none" fill-rule="evenodd">
        <path d="M17.6262645,22.8155243 C14.359077,22.8708368 13.1206395,20.4877118 13.1206395,18.8095868 L13.1206395,13.9083368 L11.602827,13.9083368 L11.602827,11.9705243 C13.8781395,11.1511493 14.4256395,9.09802425 14.554077,7.92896175 C14.5625145,7.84833675 14.6262645,7.81646175 14.6618895,7.81646175 L16.8593895,7.81646175 L16.8593895,11.6377118 L19.860327,11.6377118 L19.860327,13.9083368 L16.8481395,13.9083368 L16.8481395,18.5780243 C16.858452,19.2136493 17.090952,20.0892743 18.2918895,20.0564618 C18.6893895,20.0461493 19.2237645,19.9308368 19.502202,19.7977118 L20.224077,21.9370868 C19.9531395,22.3345868 18.7287645,22.7967743 17.6262645,22.8155243 M15.913452,0.316461751 C7.62876448,0.316461751 0.913451982,7.03177425 0.913451982,15.3164618 C0.913451982,23.6011493 7.62876448,30.3164618 15.913452,30.3164618 C24.197202,30.3164618 30.913452,23.6011493 30.913452,15.3164618 C30.913452,7.03177425 24.197202,0.316461751 15.913452,0.316461751" id="tb-escuro" fill="#9B9B9B"></path>
    </g>
</svg>