<?xml version="1.0" encoding="UTF-8" standalone="no"?>
<svg width="30px" height="31px" viewBox="0 0 30 31" version="1.1" xmlns="http://www.w3.org/2000/svg" xmlns:xlink="http://www.w3.org/1999/xlink">
    <!-- Generator: Sketch 3.7.2 (28276) - http://www.bohemiancoding.com/sketch -->
    <title>tb</title>
    <desc>Created with Sketch.</desc>
    <defs></defs>
    <g id="Page-1" stroke="none" stroke-width="1" fill="none" fill-rule="evenodd">
        <path d="M16.7067858,23.463405 C13.4395983,23.5187175 12.2011608,21.1355925 12.2011608,19.4574675 L12.2011608,14.5562175 L10.6833483,14.5562175 L10.6833483,12.618405 C12.9586608,11.79903 13.5061608,9.74590501 13.6345983,8.57684251 C13.6430358,8.49621751 13.7067858,8.46434251 13.7424108,8.46434251 L15.9399108,8.46434251 L15.9399108,12.2855925 L18.9408483,12.2855925 L18.9408483,14.5562175 L15.9286608,14.5562175 L15.9286608,19.225905 C15.9389733,19.86153 16.1714733,20.737155 17.3724108,20.7043425 C17.7699108,20.69403 18.3042858,20.5787175 18.5827233,20.4455925 L19.3045983,22.5849675 C19.0336608,22.9824675 17.8092858,23.444655 16.7067858,23.463405 M14.9939733,0.964342515 C6.70928575,0.964342515 -0.0060267486,7.67965501 -0.0060267486,15.9643425 C-0.0060267486,24.24903 6.70928575,30.9643425 14.9939733,30.9643425 C23.2777233,30.9643425 29.9939733,24.24903 29.9939733,15.9643425 C29.9939733,7.67965501 23.2777233,0.964342515 14.9939733,0.964342515" id="tb" fill="#37465C"></path>
    </g>
</svg>