<?xml version="1.0" encoding="UTF-8" standalone="no"?>
<svg width="31px" height="31px" viewBox="0 0 31 31" version="1.1" xmlns="http://www.w3.org/2000/svg" xmlns:xlink="http://www.w3.org/1999/xlink">
    <!-- Generator: Sketch 3.7.2 (28276) - http://www.bohemiancoding.com/sketch -->
    <title>tw-escuro</title>
    <desc>Created with Sketch.</desc>
    <defs></defs>
    <g id="Page-1" stroke="none" stroke-width="1" fill="none" fill-rule="evenodd">
        <path d="M21.6936383,12.2573993 C21.6992633,12.3895868 21.7030133,12.5217743 21.7030133,12.6558368 C21.7030133,16.7217743 18.6073883,21.4111493 12.9467633,21.4111493 C11.2086383,21.4111493 9.5914508,20.9020868 8.2292633,20.0292743 C8.4702008,20.0573993 8.7148883,20.0714618 8.9633258,20.0714618 C10.4052008,20.0714618 11.7317633,19.5802118 12.7855133,18.7542743 C11.4383258,18.7298993 10.3020758,17.8402118 9.9102008,16.6177118 C10.0986383,16.6533368 10.2908258,16.6720868 10.4895758,16.6720868 C10.7698883,16.6720868 11.0417633,16.6345868 11.3005133,16.5642743 C9.8923883,16.2820868 8.8320758,15.0380243 8.8320758,13.5473993 L8.8320758,13.5080243 C9.2464508,13.7386493 9.7217633,13.8773993 10.2261383,13.8933368 C9.4002008,13.3411493 8.8564508,12.3989618 8.8564508,11.3320868 C8.8564508,10.7677118 9.0083258,10.2389618 9.2736383,9.78427425 C10.7914508,11.6461493 13.0592633,12.8714618 15.6167633,12.9998993 C15.5642633,12.7748993 15.5370758,12.5395868 15.5370758,12.2986493 C15.5370758,10.5989618 16.9152008,9.22083675 18.6139508,9.22083675 C19.4998883,9.22083675 20.2995758,9.59489925 20.8602008,10.1930243 C21.5614508,10.0552118 22.2205133,9.79927425 22.8148883,9.44677425 C22.5852008,10.1648993 22.0967633,10.7677118 21.4620758,11.1492743 C22.0845758,11.0742743 22.6770758,10.9092743 23.2292633,10.6645868 C22.8167633,11.2814618 22.2945758,11.8233368 21.6936383,12.2573993 M15.7292633,0.316461751 C7.4445758,0.316461751 0.7292633,7.03177425 0.7292633,15.3164618 C0.7292633,23.6002118 7.4445758,30.3164618 15.7292633,30.3164618 C24.0139508,30.3164618 30.7292633,23.6002118 30.7292633,15.3164618 C30.7292633,7.03177425 24.0139508,0.316461751 15.7292633,0.316461751" id="tw-escuro" fill="#9B9B9B"></path>
    </g>
</svg>