<?xml version="1.0" encoding="UTF-8" standalone="no"?>
<svg width="31px" height="31px" viewBox="0 0 31 31" version="1.1" xmlns="http://www.w3.org/2000/svg" xmlns:xlink="http://www.w3.org/1999/xlink">
    <!-- Generator: Sketch 3.7.2 (28276) - http://www.bohemiancoding.com/sketch -->
    <title>tw</title>
    <desc>Created with Sketch.</desc>
    <defs></defs>
    <g id="Page-1" stroke="none" stroke-width="1" fill="none" fill-rule="evenodd">
        <path d="M21.7741596,12.90528 C21.7797846,13.0374675 21.7835346,13.169655 21.7835346,13.3037175 C21.7835346,17.369655 18.6879096,22.05903 13.0272846,22.05903 C11.2891596,22.05903 9.67197207,21.5499675 8.30978457,20.677155 C8.55072207,20.70528 8.79540957,20.7193425 9.04384707,20.7193425 C10.4857221,20.7193425 11.8122846,20.2280925 12.8660346,19.402155 C11.5188471,19.37778 10.3825971,18.4880925 9.99072207,17.2655925 C10.1791596,17.3012175 10.3713471,17.3199675 10.5700971,17.3199675 C10.8504096,17.3199675 11.1222846,17.2824675 11.3810346,17.212155 C9.97290957,16.9299675 8.91259707,15.685905 8.91259707,14.19528 L8.91259707,14.155905 C9.32697207,14.38653 9.80228457,14.52528 10.3066596,14.5412175 C9.48072207,13.98903 8.93697207,13.0468425 8.93697207,11.9799675 C8.93697207,11.4155925 9.08884707,10.8868425 9.35415957,10.432155 C10.8719721,12.29403 13.1397846,13.5193425 15.6972846,13.64778 C15.6447846,13.42278 15.6175971,13.1874675 15.6175971,12.94653 C15.6175971,11.2468425 16.9957221,9.86871751 18.6944721,9.86871751 C19.5804096,9.86871751 20.3800971,10.24278 20.9407221,10.840905 C21.6419721,10.7030925 22.3010346,10.447155 22.8954096,10.094655 C22.6657221,10.81278 22.1772846,11.4155925 21.5425971,11.797155 C22.1650971,11.722155 22.7575971,11.557155 23.3097846,11.3124675 C22.8972846,11.9293425 22.3750971,12.4712175 21.7741596,12.90528 M15.8097846,0.964342515 C7.52509707,0.964342515 0.809784569,7.67965501 0.809784569,15.9643425 C0.809784569,24.2480925 7.52509707,30.9643425 15.8097846,30.9643425 C24.0944721,30.9643425 30.8097846,24.2480925 30.8097846,15.9643425 C30.8097846,7.67965501 24.0944721,0.964342515 15.8097846,0.964342515" id="tw" fill="#61AADB"></path>
    </g>
</svg>