<?xml version="1.0" encoding="UTF-8" standalone="no"?>
<svg width="17px" height="17px" viewBox="0 0 17 17" version="1.1" xmlns="http://www.w3.org/2000/svg" xmlns:xlink="http://www.w3.org/1999/xlink">
    <!-- Generator: Sketch 3.7.2 (28276) - http://www.bohemiancoding.com/sketch -->
    <title>icon-comentario</title>
    <desc>Created with Sketch.</desc>
    <defs></defs>
    <g id="Page-1" stroke="none" stroke-width="1" fill="none" fill-rule="evenodd">
        <path d="M14.4125208,0.235271898 L1.61252084,0.235271898 C0.73252084,0.235271898 0.0125208403,0.955271898 0.0125208403,1.8352719 L0.0125208403,16.2352719 L3.21252084,13.0352719 L14.4125208,13.0352719 C15.2925208,13.0352719 16.0125208,12.3152719 16.0125208,11.4352719 L16.0125208,1.8352719 C16.0125208,0.955271898 15.2925208,0.235271898 14.4125208,0.235271898 L14.4125208,0.235271898 Z M3.21252084,5.8352719 L12.8125208,5.8352719 L12.8125208,7.4352719 L3.21252084,7.4352719 L3.21252084,5.8352719 L3.21252084,5.8352719 Z M9.61252084,9.8352719 L3.21252084,9.8352719 L3.21252084,8.2352719 L9.61252084,8.2352719 L9.61252084,9.8352719 L9.61252084,9.8352719 Z M12.8125208,5.0352719 L3.21252084,5.0352719 L3.21252084,3.4352719 L12.8125208,3.4352719 L12.8125208,5.0352719 L12.8125208,5.0352719 Z" id="icon-comentario" fill="#FFFFFF"></path>
    </g>
</svg>