<svg xmlns="http://www.w3.org/2000/svg" width="467" height="100" viewBox="0 0 467 100">
  <path fill="#FFAD14" fill-rule="evenodd" d="M1159,738.588537 C1159,736.606643 1160.61577,735 1162.58204,735 L1238.16362,735 C1240.14192,735 1241.74565,736.611265 1241.74565,738.588537 L1241.74565,831.411463 C1241.74565,833.393357 1240.12988,835 1238.16362,835 L1162.58204,835 C1160.60373,835 1159,833.388735 1159,831.411463 L1159,738.588537 Z M1166.00727,822.167059 C1166.00727,820.906806 1167.02281,819.885169 1168.28358,819.885169 L1171.74939,819.885169 C1173.00656,819.885169 1174.0257,820.907145 1174.0257,822.167059 L1174.0257,824.631587 C1174.0257,825.89184 1173.01016,826.913477 1171.74939,826.913477 L1168.28358,826.913477 C1167.02641,826.913477 1166.00727,825.891501 1166.00727,824.631587 L1166.00727,822.167059 Z M1226.30919,822.167059 C1226.30919,820.906806 1227.32473,819.885169 1228.5855,819.885169 L1232.0513,819.885169 C1233.30847,819.885169 1234.32761,820.907145 1234.32761,822.167059 L1234.32761,824.631587 C1234.32761,825.89184 1233.31207,826.913477 1232.0513,826.913477 L1228.5855,826.913477 C1227.32833,826.913477 1226.30919,825.891501 1226.30919,824.631587 L1226.30919,822.167059 Z M1166.00727,809.067549 C1166.00727,807.807296 1167.02281,806.785659 1168.28358,806.785659 L1171.74939,806.785659 C1173.00656,806.785659 1174.0257,807.807635 1174.0257,809.067549 L1174.0257,811.532076 C1174.0257,812.792329 1173.01016,813.813966 1171.74939,813.813966 L1168.28358,813.813966 C1167.02641,813.813966 1166.00727,812.79199 1166.00727,811.532076 L1166.00727,809.067549 Z M1226.30919,809.067549 C1226.30919,807.807296 1227.32473,806.785659 1228.5855,806.785659 L1232.0513,806.785659 C1233.30847,806.785659 1234.32761,807.807635 1234.32761,809.067549 L1234.32761,811.532076 C1234.32761,812.792329 1233.31207,813.813966 1232.0513,813.813966 L1228.5855,813.813966 C1227.32833,813.813966 1226.30919,812.79199 1226.30919,811.532076 L1226.30919,809.067549 Z M1166.00727,796.138074 C1166.00727,794.877821 1167.02281,793.856184 1168.28358,793.856184 L1171.74939,793.856184 C1173.00656,793.856184 1174.0257,794.87816 1174.0257,796.138074 L1174.0257,798.602601 C1174.0257,799.862855 1173.01016,800.884492 1171.74939,800.884492 L1168.28358,800.884492 C1167.02641,800.884492 1166.00727,799.862515 1166.00727,798.602601 L1166.00727,796.138074 Z M1226.30919,796.138074 C1226.30919,794.877821 1227.32473,793.856184 1228.5855,793.856184 L1232.0513,793.856184 C1233.30847,793.856184 1234.32761,794.87816 1234.32761,796.138074 L1234.32761,798.602601 C1234.32761,799.862855 1233.31207,800.884492 1232.0513,800.884492 L1228.5855,800.884492 C1227.32833,800.884492 1226.30919,799.862515 1226.30919,798.602601 L1226.30919,796.138074 Z M1166.00727,783.208599 C1166.00727,781.948346 1167.02281,780.926709 1168.28358,780.926709 L1171.74939,780.926709 C1173.00656,780.926709 1174.0257,781.948685 1174.0257,783.208599 L1174.0257,785.673127 C1174.0257,786.93338 1173.01016,787.955017 1171.74939,787.955017 L1168.28358,787.955017 C1167.02641,787.955017 1166.00727,786.933041 1166.00727,785.673127 L1166.00727,783.208599 Z M1226.30919,783.208599 C1226.30919,781.948346 1227.32473,780.926709 1228.5855,780.926709 L1232.0513,780.926709 C1233.30847,780.926709 1234.32761,781.948685 1234.32761,783.208599 L1234.32761,785.673127 C1234.32761,786.93338 1233.31207,787.955017 1232.0513,787.955017 L1228.5855,787.955017 C1227.32833,787.955017 1226.30919,786.933041 1226.30919,785.673127 L1226.30919,783.208599 Z M1166.00727,770.333411 C1166.00727,769.073158 1167.02281,768.051521 1168.28358,768.051521 L1171.74939,768.051521 C1173.00656,768.051521 1174.0257,769.073497 1174.0257,770.333411 L1174.0257,772.797939 C1174.0257,774.058192 1173.01016,775.079829 1171.74939,775.079829 L1168.28358,775.079829 C1167.02641,775.079829 1166.00727,774.057853 1166.00727,772.797939 L1166.00727,770.333411 Z M1226.30919,770.333411 C1226.30919,769.073158 1227.32473,768.051521 1228.5855,768.051521 L1232.0513,768.051521 C1233.30847,768.051521 1234.32761,769.073497 1234.32761,770.333411 L1234.32761,772.797939 C1234.32761,774.058192 1233.31207,775.079829 1232.0513,775.079829 L1228.5855,775.079829 C1227.32833,775.079829 1226.30919,774.057853 1226.30919,772.797939 L1226.30919,770.333411 Z M1166.00727,757.44458 C1166.00727,756.184327 1167.02281,755.16269 1168.28358,755.16269 L1171.74939,755.16269 C1173.00656,755.16269 1174.0257,756.184667 1174.0257,757.44458 L1174.0257,759.909108 C1174.0257,761.169361 1173.01016,762.190998 1171.74939,762.190998 L1168.28358,762.190998 C1167.02641,762.190998 1166.00727,761.169022 1166.00727,759.909108 L1166.00727,757.44458 Z M1226.30919,757.44458 C1226.30919,756.184327 1227.32473,755.16269 1228.5855,755.16269 L1232.0513,755.16269 C1233.30847,755.16269 1234.32761,756.184667 1234.32761,757.44458 L1234.32761,759.909108 C1234.32761,761.169361 1233.31207,762.190998 1232.0513,762.190998 L1228.5855,762.190998 C1227.32833,762.190998 1226.30919,761.169022 1226.30919,759.909108 L1226.30919,757.44458 Z M1166.00727,745.007227 C1166.00727,743.746974 1167.02281,742.725337 1168.28358,742.725337 L1171.74939,742.725337 C1173.00656,742.725337 1174.0257,743.747313 1174.0257,745.007227 L1174.0257,747.471755 C1174.0257,748.732008 1173.01016,749.753645 1171.74939,749.753645 L1168.28358,749.753645 C1167.02641,749.753645 1166.00727,748.731669 1166.00727,747.471755 L1166.00727,745.007227 Z M1226.30919,745.007227 C1226.30919,743.746974 1227.32473,742.725337 1228.5855,742.725337 L1232.0513,742.725337 C1233.30847,742.725337 1234.32761,743.747313 1234.32761,745.007227 L1234.32761,747.471755 C1234.32761,748.732008 1233.31207,749.753645 1232.0513,749.753645 L1228.5855,749.753645 C1227.32833,749.753645 1226.30919,748.731669 1226.30919,747.471755 L1226.30919,745.007227 Z M1181.72307,804.223126 C1181.72307,803.376357 1182.41084,802.689915 1183.26117,802.689915 L1217.07372,802.689915 C1217.92319,802.689915 1218.61182,803.372071 1218.61182,804.223126 L1218.61182,824.801931 C1218.61182,825.6487 1217.92404,826.335142 1217.07372,826.335142 L1183.26117,826.335142 C1182.4117,826.335142 1181.72307,825.652986 1181.72307,824.801931 L1181.72307,804.223126 Z M1181.72307,774.850023 C1181.72307,774.003254 1182.41084,773.316812 1183.26117,773.316812 L1217.07372,773.316812 C1217.92319,773.316812 1218.61182,773.998967 1218.61182,774.850023 L1218.61182,795.428828 C1218.61182,796.275597 1217.92404,796.962038 1217.07372,796.962038 L1183.26117,796.962038 C1182.4117,796.962038 1181.72307,796.279883 1181.72307,795.428828 L1181.72307,774.850023 Z M1181.72307,744.95711 C1181.72307,744.110341 1182.41084,743.423899 1183.26117,743.423899 L1217.07372,743.423899 C1217.92319,743.423899 1218.61182,744.106055 1218.61182,744.95711 L1218.61182,765.535915 C1218.61182,766.382684 1217.92404,767.069126 1217.07372,767.069126 L1183.26117,767.069126 C1182.4117,767.069126 1181.72307,766.38697 1181.72307,765.535915 L1181.72307,744.95711 Z M1353,772.359551 C1353,800.379213 1390.39466,835 1390.39466,835 C1390.39466,835 1427.78933,800.379213 1427.78933,772.359551 C1427.78933,751.705056 1411.06857,735 1390.39466,735 C1369.72076,735 1353,751.705056 1353,772.359551 Z M1390.35955,785 C1398.2715,785 1404.68539,778.586102 1404.68539,770.674157 C1404.68539,762.762213 1398.2715,756.348315 1390.35955,756.348315 C1382.44761,756.348315 1376.03371,762.762213 1376.03371,770.674157 C1376.03371,778.586102 1382.44761,785 1390.35955,785 Z M1030.44444,796.111111 L1026,796.111111 L1024.33333,794.444444 C1029.88889,788.333333 1033.22222,780 1033.22222,771.111111 C1033.22222,751.111111 1017.11111,735 997.111111,735 C977.111111,735 961,751.111111 961,771.111111 C961,791.111111 977.111111,807.222222 997.111111,807.222222 C1006,807.222222 1014.33333,803.888889 1020.44444,798.333333 L1022.11111,800 L1022.11111,804.444444 L1049.88889,832.222222 L1058.22222,823.888889 L1030.44444,796.111111 Z M997.111111,796.111111 C983.222222,796.111111 972.111111,785 972.111111,771.111111 C972.111111,757.222222 983.222222,746.111111 997.111111,746.111111 C1011,746.111111 1022.11111,757.222222 1022.11111,771.111111 C1022.11111,785 1011,796.111111 997.111111,796.111111 Z" transform="translate(-961 -735)"/>
</svg>
