<svg xmlns="http://www.w3.org/2000/svg" width="127" height="29" viewBox="0 0 127 29">
  <g fill="#8399AE" fill-rule="evenodd">
    <path d="M55.5572956 7.42704882L52.7110996 7.42704882 47.6098407 19.8955765 47.5222655 19.8955765 42.4100597 7.42704882 39.5748106 7.42704882 39.5748106 23.2234363 41.8079798 23.2234363 41.8079798 11.5978206 41.8846081 11.5978206 46.6574598 23.1030204 48.4746464 23.1030204 53.2365512 11.5978206 53.3131795 11.5978206 53.3131795 23.2234363 55.5572956 23.2234363 55.5572956 7.42704882zM63.318653 23.3657461C66.7559819 23.3657461 68.9344165 21.0231079 68.9344165 17.2792656 68.9344165 13.5354232 66.745035 11.1818381 63.318653 11.1818381 59.8922709 11.1818381 57.6919425 13.5463701 57.6919425 17.2792656 57.6919425 21.0231079 59.881324 23.3657461 63.318653 23.3657461L63.318653 23.3657461zM63.318653 21.3953028C61.304422 21.3953028 60.1002622 19.8736826 60.1002622 17.2792656 60.1002622 14.6957954 61.304422 13.1522814 63.318653 13.1522814 65.332884 13.1522814 66.5260969 14.6848485 66.5260969 17.2792656 66.5260969 19.8736826 65.332884 21.3953028 63.318653 21.3953028L63.318653 21.3953028zM80.6257137 11.3350948L78.1626596 11.3350948 75.1194193 20.8807981 75.0646847 20.8807981 72.0323914 11.3350948 69.5255495 11.3350948 73.8167373 23.2234363 76.3454729 23.2234363 80.6257137 11.3350948zM81.5890416 18.8227795C81.7422983 21.6799224 84.1068303 23.4861621 87.6098407 23.4861621 91.3536831 23.4861621 93.7072682 21.6361347 93.7072682 18.6804697 93.7072682 16.3706722 92.3607986 15.0679902 89.120514 14.3017067L87.3799557 13.8747773C85.3438309 13.3712196 84.5118659 12.7144051 84.5118659 11.5978206 84.5118659 10.1966164 85.8145479 9.23328855 87.7193098 9.23328855 89.6240717 9.23328855 90.9267537 10.1856695 91.0690635 11.7620242L93.4554893 11.7620242C93.378861 9.03624422 91.0909573 7.16432304 87.7521505 7.16432304 84.380503 7.16432304 82.0050241 9.03624422 82.0050241 11.7620242 82.0050241 13.9623526 83.3514937 15.3197691 86.2524242 16.0203712L88.2994959 16.512982C90.3465676 17.0165398 91.2113733 17.7499826 91.2113733 18.9760362 91.2113733 20.3881873 89.7773284 21.4171966 87.7849912 21.4171966 85.7050788 21.4171966 84.1834587 20.3881873 84.0083082 18.8227795L81.5890416 18.8227795zM101.797033 11.2146788C100.14405 11.2146788 98.6771642 12.02475 98.0094029 13.3055381L97.9546683 13.3055381 97.9546683 11.3350948 95.6667646 11.3350948 95.6667646 27.164323 98.0422436 27.164323 98.0422436 21.2748868 98.0860312 21.2748868C98.7975802 22.5885157 100.14405 23.3438523 101.851767 23.3438523 104.840273 23.3438523 106.821663 20.9574265 106.821663 17.2792656 106.821663 13.5901577 104.829326 11.2146788 101.797033 11.2146788L101.797033 11.2146788zM101.194953 21.3296213C99.3011379 21.3296213 98.0312967 19.709479 98.0203498 17.2792656 98.0312967 14.859999 99.3120848 13.2289098 101.194953 13.2289098 103.121609 13.2289098 104.39145 14.8271583 104.39145 17.2792656 104.39145 19.7423198 103.121609 21.3296213 101.194953 21.3296213L101.194953 21.3296213zM113.80579 23.3657461C117.243119 23.3657461 119.421554 21.0231079 119.421554 17.2792656 119.421554 13.5354232 117.232172 11.1818381 113.80579 11.1818381 110.379408 11.1818381 108.17908 13.5463701 108.17908 17.2792656 108.17908 21.0231079 110.368461 23.3657461 113.80579 23.3657461L113.80579 23.3657461zM113.80579 21.3953028C111.791559 21.3953028 110.5874 19.8736826 110.5874 17.2792656 110.5874 14.6957954 111.791559 13.1522814 113.80579 13.1522814 115.820021 13.1522814 117.013234 14.6848485 117.013234 17.2792656 117.013234 19.8736826 115.820021 21.3953028 113.80579 21.3953028L113.80579 21.3953028zM122.037865 8.66404936L122.037865 11.3350948 120.395829 11.3350948 120.395829 13.207016 122.037865 13.207016 122.037865 20.0926208C122.037865 22.3914714 122.957405 23.3000647 125.332884 23.3000647 125.847389 23.3000647 126.405681 23.2453302 126.668407 23.1796487L126.668407 21.3077275C126.51515 21.3296213 126.110114 21.3624621 125.858336 21.3624621 124.862167 21.3624621 124.402397 20.8807981 124.402397 19.8517888L124.402397 13.207016 126.679354 13.207016 126.679354 11.3350948 124.402397 11.3350948 124.402397 8.66404936 122.037865 8.66404936zM11.1064685 28.164099C6.19135088 27.930346 3.25209969 27.3226832 3.25209969 27.3226832 1.77347377 27.0815146.574810624 25.6540523.574810624 24.1527936L.574810624 7.86456213C.574810624 6.35504906 1.77283274 4.92354412 3.27790127 4.69090297 3.27790127 4.69090297 5.98431529 4.13043187 10.5628 3.88073165L10.5628.842123025C10.5628.467784427 10.8744518.164323035 11.2499152.164323035L18.6322783.164323035C19.0117615.164323035 19.3193935.472839153 19.3193935.842123025L19.3193935 3.88103071C23.9067986 4.13165662 26.6300938 4.69467249 26.6300938 4.69467249 28.1087197 4.93584113 29.3073829 6.36330341 29.3073829 7.86456213L29.3073829 24.1527936C29.3073829 25.6623067 28.1093608 27.0938116 26.6042922 27.3264528 26.6042922 27.3264528 23.7086651 27.926108 18.840763 28.1612312 21.32137 25.1052785 24.079651 20.8628949 24.079651 17.1074192 24.079651 12.0771667 20.0074319 8.00877133 14.9724517 8.00877133 9.93747159 8.00877133 5.8652525 12.0771667 5.8652525 17.1074192 5.8652525 20.8640698 8.62525961 25.1079329 11.1064685 28.164099zM12.2377864 2.06831818C12.2377864 1.91714949 12.3507113 1.79460305 12.5133345 1.79460305L17.368859 1.79460305C17.52104 1.79460305 17.6444071 1.92376355 17.6444071 2.06831818L17.6444071 3.76312922 12.2377864 3.76312922 12.2377864 2.06831818zM14.9639004 20.1859091C16.8907971 20.1859091 18.4528556 18.6238506 18.4528556 16.6969539 18.4528556 14.7700571 16.8907971 13.2079987 14.9639004 13.2079987 13.0370036 13.2079987 11.4749452 14.7700571 11.4749452 16.6969539 11.4749452 18.6238506 13.0370036 20.1859091 14.9639004 20.1859091z"/>
  </g>
</svg>
