<svg xmlns="http://www.w3.org/2000/svg" width="31" height="30" viewBox="0 0 31 30">
  <path fill="#FFAD14" fill-rule="evenodd" d="M1282.73673,618.986035 C1277.6048,618.741971 1274.53589,618.107503 1274.53589,618.107503 C1272.99204,617.855696 1271.74051,616.365267 1271.74051,614.797786 L1271.74051,597.791061 C1271.74051,596.214962 1272.99137,594.720312 1274.56283,594.477408 C1274.56283,594.477408 1277.38863,593.892214 1282.16908,593.6315 L1282.16908,590.458854 C1282.16908,590.068003 1282.49448,589.751156 1282.8865,589.751156 L1290.59451,589.751156 C1290.99073,589.751156 1291.31193,590.073281 1291.31193,590.458854 L1291.31193,593.631812 C1296.1017,593.893493 1298.94512,594.481344 1298.94512,594.481344 C1300.48897,594.733151 1301.74051,596.22358 1301.74051,597.791061 L1301.74051,614.797786 C1301.74051,616.373886 1300.48964,617.868536 1298.91818,618.111439 C1298.91818,618.111439 1295.89482,618.737546 1290.81219,618.983041 C1293.40222,615.792286 1296.28217,611.362766 1296.28217,607.441632 C1296.28217,602.189489 1292.03032,597.941632 1286.77324,597.941632 C1281.51616,597.941632 1277.26432,602.189489 1277.26432,607.441632 C1277.26432,611.363993 1280.14607,615.795058 1282.73673,618.986035 Z M1283.91795,591.739138 C1283.91795,591.581301 1284.04646,591.453349 1284.20565,591.453349 L1289.27536,591.453349 C1289.43425,591.453349 1289.56306,591.588207 1289.56306,591.739138 L1289.56306,593.50871 L1283.91795,593.50871 L1283.91795,591.739138 Z M1286.76432,610.655918 C1288.77621,610.655918 1290.40717,609.024955 1290.40717,607.013061 C1290.40717,605.001166 1288.77621,603.370203 1286.76432,603.370203 C1284.75242,603.370203 1283.12146,605.001166 1283.12146,607.013061 C1283.12146,609.024955 1284.75242,610.655918 1286.76432,610.655918 Z" transform="translate(-1271 -589)"/>
</svg>
