<svg xmlns="http://www.w3.org/2000/svg" width="127" height="28" viewBox="0 0 127 28">
  <g fill="none" fill-rule="evenodd">
    <path fill="#FFFFFF" d="M54.9824849,7.26272578 L52.136289,7.26272578 L47.0350301,19.7312534 L46.9474548,19.7312534 L41.835249,7.26272578 L39,7.26272578 L39,23.0591133 L41.2331691,23.0591133 L41.2331691,11.4334975 L41.3097975,11.4334975 L46.0826492,22.9386973 L47.8998358,22.9386973 L52.6617406,11.4334975 L52.7383689,11.4334975 L52.7383689,23.0591133 L54.9824849,23.0591133 L54.9824849,7.26272578 Z M62.7438424,23.2014231 C66.1811713,23.2014231 68.3596059,20.8587849 68.3596059,17.1149425 C68.3596059,13.3711002 66.1702244,11.0175151 62.7438424,11.0175151 C59.3174603,11.0175151 57.1171319,13.3820471 57.1171319,17.1149425 C57.1171319,20.8587849 59.3065134,23.2014231 62.7438424,23.2014231 L62.7438424,23.2014231 Z M62.7438424,21.2309797 C60.7296114,21.2309797 59.5254516,19.7093596 59.5254516,17.1149425 C59.5254516,14.5314724 60.7296114,12.9879584 62.7438424,12.9879584 C64.7580733,12.9879584 65.9512863,14.5205255 65.9512863,17.1149425 C65.9512863,19.7093596 64.7580733,21.2309797 62.7438424,21.2309797 L62.7438424,21.2309797 Z M80.0509031,11.1707718 L77.5878489,11.1707718 L74.5446086,20.7164751 L74.4898741,20.7164751 L71.4575807,11.1707718 L68.9507389,11.1707718 L73.2419267,23.0591133 L75.7706623,23.0591133 L80.0509031,11.1707718 Z M81.014231,18.6584565 C81.1674877,21.5155993 83.5320197,23.3218391 87.0350301,23.3218391 C90.7788725,23.3218391 93.1324576,21.4718117 93.1324576,18.5161467 C93.1324576,16.2063492 91.785988,14.9036672 88.5457033,14.1373837 L86.805145,13.7104543 C84.7690203,13.2068966 83.9370553,12.5500821 83.9370553,11.4334975 C83.9370553,10.0322934 85.2397373,9.06896552 87.1444992,9.06896552 C89.0492611,9.06896552 90.3519431,10.0213465 90.4942529,11.5977011 L92.8806787,11.5977011 C92.8040504,8.87192118 90.5161467,7 87.1773399,7 C83.8056924,7 81.4302135,8.87192118 81.4302135,11.5977011 C81.4302135,13.7980296 82.7766831,15.1554461 85.6776136,15.8560482 L87.7246853,16.348659 C89.771757,16.8522167 90.6365627,17.5856596 90.6365627,18.8117132 C90.6365627,20.2238643 89.2025178,21.2528736 87.2101806,21.2528736 C85.1302682,21.2528736 83.6086481,20.2238643 83.4334975,18.6584565 L81.014231,18.6584565 Z M101.222222,11.0503558 C99.5692392,11.0503558 98.1023536,11.8604269 97.4345922,13.1412151 L97.3798577,13.1412151 L97.3798577,11.1707718 L95.091954,11.1707718 L95.091954,27 L97.467433,27 L97.467433,21.1105638 L97.5112206,21.1105638 C98.2227696,22.4241927 99.5692392,23.1795293 101.276957,23.1795293 C104.265463,23.1795293 106.246853,20.7931034 106.246853,17.1149425 C106.246853,13.4258347 104.254516,11.0503558 101.222222,11.0503558 L101.222222,11.0503558 Z M100.620142,21.1652983 C98.7263273,21.1652983 97.456486,19.545156 97.4455391,17.1149425 C97.456486,14.695676 98.7372742,13.0645868 100.620142,13.0645868 C102.546798,13.0645868 103.816639,14.6628352 103.816639,17.1149425 C103.816639,19.5779967 102.546798,21.1652983 100.620142,21.1652983 L100.620142,21.1652983 Z M113.23098,23.2014231 C116.668309,23.2014231 118.846743,20.8587849 118.846743,17.1149425 C118.846743,13.3711002 116.657362,11.0175151 113.23098,11.0175151 C109.804598,11.0175151 107.604269,13.3820471 107.604269,17.1149425 C107.604269,20.8587849 109.793651,23.2014231 113.23098,23.2014231 L113.23098,23.2014231 Z M113.23098,21.2309797 C111.216749,21.2309797 110.012589,19.7093596 110.012589,17.1149425 C110.012589,14.5314724 111.216749,12.9879584 113.23098,12.9879584 C115.245211,12.9879584 116.438424,14.5205255 116.438424,17.1149425 C116.438424,19.7093596 115.245211,21.2309797 113.23098,21.2309797 L113.23098,21.2309797 Z M121.463054,8.49972633 L121.463054,11.1707718 L119.821018,11.1707718 L119.821018,13.0426929 L121.463054,13.0426929 L121.463054,19.9282978 C121.463054,22.2271483 122.382594,23.1357417 124.758073,23.1357417 C125.272578,23.1357417 125.83087,23.0810071 126.093596,23.0153257 L126.093596,21.1434045 C125.940339,21.1652983 125.535304,21.198139 125.283525,21.198139 C124.287356,21.198139 123.827586,20.7164751 123.827586,19.6874658 L123.827586,13.0426929 L126.104543,13.0426929 L126.104543,11.1707718 L123.827586,11.1707718 L123.827586,8.49972633 L121.463054,8.49972633 Z"/>
    <path fill="#FFAD14" d="M10.5316579,27.9997759 C5.61654026,27.766023 2.67728906,27.1583602 2.67728906,27.1583602 C1.19866314,26.9171916 0,25.4897293 0,23.9884706 L0,7.70023909 C0,6.19072603 1.19802212,4.75922109 2.70309064,4.52657993 C2.70309064,4.52657993 5.40950467,3.96610884 9.9879894,3.71640861 L9.9879894,0.67779999 C9.9879894,0.303461392 10.2996412,0 10.6751046,0 L18.0574676,0 C18.4369509,0 18.7445828,0.308516117 18.7445828,0.67779999 L18.7445828,3.71670768 C23.331988,3.96733359 26.0552832,4.53034946 26.0552832,4.53034946 C27.5339091,4.7715181 28.7325722,6.19898037 28.7325722,7.70023909 L28.7325722,23.9884706 C28.7325722,25.4979836 27.5345501,26.9294886 26.0294816,27.1621297 C26.0294816,27.1621297 23.1338545,27.761785 18.2659524,27.9969082 C20.7465593,24.9409554 23.5048404,20.6985719 23.5048404,16.9430962 C23.5048404,11.9128437 19.4326213,7.8444483 14.3976411,7.8444483 C9.36266096,7.8444483 5.29044187,11.9128437 5.29044187,16.9430962 C5.29044187,20.6997468 8.05044899,24.9436099 10.5316579,27.9997759 Z M11.6629758,1.90399515 C11.6629758,1.75282646 11.7759007,1.63028002 11.9385239,1.63028002 L16.7940483,1.63028002 C16.9462294,1.63028002 17.0695965,1.75944052 17.0695965,1.90399515 L17.0695965,3.59880619 L11.6629758,3.59880619 L11.6629758,1.90399515 Z M14.3890898,20.0215861 C16.3159865,20.0215861 17.878045,18.4595276 17.878045,16.5326309 C17.878045,14.6057341 16.3159865,13.0436757 14.3890898,13.0436757 C12.462193,13.0436757 10.9001346,14.6057341 10.9001346,16.5326309 C10.9001346,18.4595276 12.462193,20.0215861 14.3890898,20.0215861 Z"/>
  </g>
</svg>
