<?xml version="1.0" encoding="UTF-8" standalone="no"?>
<svg width="25px" height="29px" viewBox="0 0 25 29" version="1.1" xmlns="http://www.w3.org/2000/svg" xmlns:xlink="http://www.w3.org/1999/xlink">
    <!-- Generator: Sketch 39.1 (31720) - http://www.bohemiancoding.com/sketch -->
    <title>Shape</title>
    <desc>Created with Sketch.</desc>
    <defs></defs>
    <g id="Page-1" stroke="none" stroke-width="1" fill="none" fill-rule="evenodd">
        <path d="M14.9987975,0.28174944 C25.5483059,7.45641512 22.1359649,15.3685464 22.1359649,15.3685464 C22.1359649,15.3685464 25.1358251,18.7558886 23.9233816,21.7182506 C23.9233816,21.7182506 22.6859393,19.6433472 20.6110359,19.6433472 C18.6111291,19.6433472 17.4361839,21.7182506 13.4113714,21.7182506 C4.44928903,21.7182506 0.211986477,14.2310994 0.211986477,14.2310994 C8.28661022,19.5433519 13.7988534,15.7810272 13.7988534,15.7810272 C10.1615229,13.6686256 2.42438339,3.56909626 2.42438339,3.56909626 C9.16156945,9.30632892 12.0739337,10.8187584 12.0739337,10.8187584 C10.3365147,9.38132543 5.46174185,2.35665276 5.46174185,2.35665276 C9.36156013,6.30646871 17.111199,11.8187119 17.111199,11.8187119 C19.3110965,5.71899608 14.9987975,0.28174944 14.9987975,0.28174944 L14.9987975,0.28174944 Z" id="Shape" fill="#FFFFFF"></path>
    </g>
</svg>